<svg xmlns="http://www.w3.org/2000/svg" viewBox="0 0 260.34 105.2" fill="#0e1a34" xmlns:v="https://vecta.io/nano"><path d="M126.82 0c.08.1.2.08.3.08A21.71 21.71 0 0 1 135.28 2a20.92 20.92 0 0 1 7.38 5.52A21.48 21.48 0 0 1 147.4 17a21.58 21.58 0 0 1 .5 3.49c0 .61.08 1.22 0 1.83a17.77 17.77 0 0 1-.9 5.22c0 .09-.06.18-.1.27a.76.76 0 0 1-.08.11c-.17 0-.19-.14-.26-.24a22.89 22.89 0 0 0-4.16-5.09 23.2 23.2 0 0 0-7.33-4.59 25 25 0 0 0-5.37-1.39 23.12 23.12 0 0 0-5-.19 24.28 24.28 0 0 0-8.41 2.07 23.27 23.27 0 0 0-5.83 3.71 23.61 23.61 0 0 0-4.62 5.44c0 .09-.07.22-.23.25a4.62 4.62 0 0 1-.5-1.34 17.48 17.48 0 0 1-.61-3.95 21.67 21.67 0 0 1 2.61-11.24 21.11 21.11 0 0 1 7.77-8.17A21.86 21.86 0 0 1 122.3.41a17.54 17.54 0 0 1 3-.33c.13 0 .28.05.4-.08zm39.24 39.66c3.3 5.76 3.1 11.7.24 17.61a.81.81 0 0 0 .53 0 11.59 11.59 0 0 0 2.82-.9 15.82 15.82 0 0 0 6.09-5.15 16.22 16.22 0 0 0 2.43-4.71 15.68 15.68 0 0 0 .6-6.24 16.89 16.89 0 0 0-1-4.4 15.9 15.9 0 0 0-3.59-5.7 16.09 16.09 0 0 0-4.8-3.37 15.89 15.89 0 0 0-6.71-1.48 13.74 13.74 0 0 0-2.39.18 17.43 17.43 0 0 0-5.74 1.91 11.54 11.54 0 0 0-3.12 2.48 2.9 2.9 0 0 0-.45.64c6.56.61 11.8 3.38 15.09 9.13zm-64.66-9.32a7.62 7.62 0 0 0-2-1.8 11.64 11.64 0 0 0-8.17-1.49 10.85 10.85 0 0 0-5.35 2.42 11.31 11.31 0 0 0-3.08 3.94 11.9 11.9 0 0 0-1.1 4 11.63 11.63 0 0 0 .45 4.47 12 12 0 0 0 2.64 4.63 9.51 9.51 0 0 0 3.94 2.76 3.48 3.48 0 0 0 1.77.24l-.24-.54-.26-.55a12.81 12.81 0 0 1-.81-6.84 12.41 12.41 0 0 1 2.93-6.33 13.39 13.39 0 0 1 7.58-4.38c.6-.12 1.2-.2 1.86-.31a1.76 1.76 0 0 0-.16-.22zm158.94 64.18c-.11.08-.08.2-.09.31a11 11 0 0 1-1.58 5.12 9.54 9.54 0 0 1-4.11 3.77 11.38 11.38 0 0 1-4.21 1.11c-2 .14-4 0-6 .07h-3.39c-.38 0-.38 0-.39-.36V82.49c0-.71-.05-.62.64-.62h8.16a12.71 12.71 0 0 1 6.3 1.72 9.29 9.29 0 0 1 4.33 5.9 7.16 7.16 0 0 1 .31 2 .24.24 0 0 0 .08.25zm-16.63-1.13v8.45c0 .52 0 .52.51.52h4.48a10.37 10.37 0 0 0 2-.18 7.66 7.66 0 0 0 4-2.09 8 8 0 0 0 2.1-3.84 12.49 12.49 0 0 0 .31-4.35 11.51 11.51 0 0 0-.48-2.39 6.89 6.89 0 0 0-3.7-4.19 9.89 9.89 0 0 0-4.11-.91h-4.72c-.38 0-.38 0-.39.41v8.58zM0 81.87h8.54a13.54 13.54 0 0 1 5.8 1.3A9.26 9.26 0 0 1 18.47 87a11.4 11.4 0 0 1 1.37 4.71 15.16 15.16 0 0 1 .07 2 12.72 12.72 0 0 1-2 6.65 9.67 9.67 0 0 1-4.34 3.58 11.69 11.69 0 0 1-3.74.89l-1.88.07H0zm3.21 11.47V102c0 .37 0 .39.36.38l6-.09a7.56 7.56 0 0 0 3.71-1.37A7.73 7.73 0 0 0 16.16 97a12.39 12.39 0 0 0 .57-4.32 10.48 10.48 0 0 0-.66-3.55A6.74 6.74 0 0 0 13.62 86a9.13 9.13 0 0 0-4.87-1.56H6.3 3.56c-.33 0-.34 0-.35.35v8.59zm190.28 11.86a2.21 2.21 0 0 0-.91-.18 10.64 10.64 0 0 1-5.42-2.46 9.83 9.83 0 0 1-2.62-3.86 13.93 13.93 0 0 1-.89-4.13 15.3 15.3 0 0 1-.06-1.79 13.47 13.47 0 0 1 1.4-5.9 9.57 9.57 0 0 1 5.58-4.71 13.62 13.62 0 0 1 3.09-.6 14.77 14.77 0 0 1 5.09.4 9.92 9.92 0 0 1 4.56 2.54 9.71 9.71 0 0 1 2.27 3.6 13.5 13.5 0 0 1 .77 3.44 15.08 15.08 0 0 1-.78 6.86 9.91 9.91 0 0 1-7.65 6.5 6.78 6.78 0 0 1-1.34.2.2.2 0 0 0-.17.09zm9.73-12a11.8 11.8 0 0 0-.29-2.93 8.29 8.29 0 0 0-2.06-4 7.84 7.84 0 0 0-6.1-2.21 9.58 9.58 0 0 0-1.59.14 7.15 7.15 0 0 0-4.74 2.9 9.94 9.94 0 0 0-1.64 5.42 13.63 13.63 0 0 0 .06 2.21 10.24 10.24 0 0 0 1.32 4.27 7 7 0 0 0 4.34 3.31 9.9 9.9 0 0 0 4.16.19 7.23 7.23 0 0 0 3.22-1.24 7.35 7.35 0 0 0 2.66-3.64 12.49 12.49 0 0 0 .66-4.38zm20.67 12a.29.29 0 0 1 .21-.09 9.52 9.52 0 0 0 3.15-.77 7.74 7.74 0 0 0 4.41-4.65 9.33 9.33 0 0 0 .55-3.18v-14c0-.69.06-.62-.59-.62h-1.94c-.65 0-.58-.06-.58.58v13.55a9.47 9.47 0 0 1-.2 2.06 5.34 5.34 0 0 1-4 4.29 8.45 8.45 0 0 1-4.65 0 4.87 4.87 0 0 1-3.46-3.2 9 9 0 0 1-.46-3q0-6.83 0-13.64v-.38c0-.18-.07-.26-.25-.25h-2.6c-.2 0-.28.1-.27.29a1.92 1.92 0 0 1 0 .24V96.5a11.13 11.13 0 0 0 .2 2.16 7.81 7.81 0 0 0 1.71 3.57 8.45 8.45 0 0 0 5.16 2.79 2.87 2.87 0 0 1 1 .18zm-76.77 0c.08-.11.2-.08.3-.1.33 0 .66-.08 1-.15a10.06 10.06 0 0 0 5.69-3.28 10.84 10.84 0 0 0 1.53-2.32c.08-.15.08-.25-.09-.34l-2.07-1c-.22-.11-.34 0-.45.15a10.43 10.43 0 0 1-1.47 2.08 7 7 0 0 1-2.76 1.9 8.33 8.33 0 0 1-3.8.46 7.4 7.4 0 0 1-3.77-1.36 8.18 8.18 0 0 1-3.06-4.58 13.27 13.27 0 0 1-.39-4 10.59 10.59 0 0 1 .74-3.86 7 7 0 0 1 4.55-4.33 9.44 9.44 0 0 1 4.57-.21 6.35 6.35 0 0 1 4 2.29 6.63 6.63 0 0 1 .82 1.32c.16.34.17.34.52.23l2.24-.75a.59.59 0 0 0 .32-.17 8.57 8.57 0 0 0-1.63-2.67 8.93 8.93 0 0 0-4.66-2.62 14.72 14.72 0 0 0-4.68-.33 13.35 13.35 0 0 0-3.31.68 9.47 9.47 0 0 0-5.4 4.86 12.12 12.12 0 0 0-1.21 4.72 16.74 16.74 0 0 0 .54 5.93 10.48 10.48 0 0 0 2.46 4.35 10.26 10.26 0 0 0 5.75 2.92 2.43 2.43 0 0 1 .95.18zM39.74 95.07l6.42 9.74c-.12.14-.23.1-.34.1h-2.83a.62.62 0 0 1-.6-.34l-3.32-5.32-2.2-3.52a.7.7 0 0 0-.68-.38h-6.23-.18c-.22 0-.33.06-.31.29s0 .22 0 .33v8.31.38a.2.2 0 0 1-.23.23H26.6c-.18 0-.26-.08-.25-.25v-.33q0-10.93 0-21.86c0-.63-.07-.59.57-.59h10.67a10.26 10.26 0 0 1 3.86.73 5.77 5.77 0 0 1 3.75 4.54 7 7 0 0 1-.54 4.33 6.28 6.28 0 0 1-4.39 3.4 1.51 1.51 0 0 0-.53.21zm-6-10.65h0-3.87c-.36 0-.37 0-.37.37v7.73c0 .37 0 .39.36.38l7.92-.06a5.75 5.75 0 0 0 1.92-.42 3.85 3.85 0 0 0 2.16-2.12 4.87 4.87 0 0 0 .3-2 3.49 3.49 0 0 0-2.25-3.3 6.39 6.39 0 0 0-2.43-.52l-3.77-.06zm81.4 7.58l-1.88-2.77-4.75-7a.7.7 0 0 0-.69-.35h-3.07c-.66 0-.6-.06-.6.61v21.81a2.62 2.62 0 0 1 0 .28c0 .25.1.33.33.32h1.85c.62 0 .58 0 .58-.59V89.44l-.08-4.25c0-.11 0-.25.05-.36.16 0 .22.19.3.29l5.67 7.6a87.75 87.75 0 0 1 2.25 3.08c.24.32.25.32.5 0l1.4-1.89 5.81-7.85.92-1.22a.6.6 0 0 1 .09.34l-.09 2q0 8.64 0 17.28a.66.66 0 0 1 0 .14c0 .25.1.32.34.32H126c.64 0 .56 0 .56-.57V82.24c0-.36 0-.37-.37-.37h-3.35a.49.49 0 0 0-.47.25c-.18.31-.41.59-.61.89l-6 8.89a1.14 1.14 0 0 1-.34.44c-.15-.06-.2-.21-.28-.34zm-63.5 12.37c0 .51 0 .51.52.51h17c.62 0 .57 0 .58-.55s0-1 0-1.51 0-.55-.57-.55H55c-.15 0-.23-.07-.22-.23s0-.22 0-.33v-6.83c0-.6 0-.55.58-.55h12.11.38c.13 0 .24-.09.24-.26v-2c0-.22-.09-.31-.31-.3s-.22 0-.33 0h-6-6.23c-.41 0-.41 0-.42-.42q0-3.27 0-6.56c0-.37 0-.37.36-.38h13.66c.19 0 .29 0 .29-.26v-2c0-.17-.07-.27-.25-.26H52.2c-.6 0-.56-.05-.56.56v22zm23.58.44a5.9 5.9 0 0 1 .37-1l4.82-11.83q1.89-4.61 3.76-9.21l.29-.7a.34.34 0 0 1 .36-.24q1.53 0 3.06 0c.25 0 .32.14.4.33q1.22 3.06 2.45 6.12 2.37 5.88 4.73 11.77l1.75 4.37.06.13c.1.28.08.31-.19.32h-2.41c-.51 0-.51 0-.68-.46l-1.16-3-1.13-2.9a.5.5 0 0 0-.54-.39h-9.68a.52.52 0 0 0-.57.42q-1.16 3-2.33 5.92c-.15.39-.15.39-.57.39H75.6a.53.53 0 0 1-.38-.02zm11.11-20.46a4.44 4.44 0 0 0-.35.94c-1.08 3.25-2.42 6.41-3.64 9.61a2.11 2.11 0 0 0-.22.74c.86.09 8.06 0 8.43 0-1.37-3.77-2.98-7.4-4.22-11.29zm78 20.08c0 .46 0 .46.46.47h13.74.33c.11 0 .27-.1.27-.29v-2c0-.23-.09-.31-.31-.29h-10.68c-.69 0-.63.06-.63-.64v-19.1-.37c0-.33 0-.34-.35-.34h-2.32c-.51 0-.51 0-.51.51v22.05z"/></svg>