<svg xmlns="http://www.w3.org/2000/svg" viewBox="0 0 42.254 40.468">
    <path fill="#FC9B1B" d="M32.37,40.468a4.547,4.547,0,0,1-2.092-.567l-9.151-4.812-5.578,2.935a1.573,1.573,0,0,1-1.465-2.783l6.311-3.32a1.564,1.564,0,0,1,1.464,0l9.882,5.2a2.118,2.118,0,0,0,.451.183,2.109,2.109,0,0,0-.035-.486l-1.886-11a1.57,1.57,0,0,1,.452-1.392l7.991-7.788a2.09,2.09,0,0,0,.316-.377,2.192,2.192,0,0,0-.478-.119l-11.042-1.6a1.573,1.573,0,0,1-1.184-.861L23.148,7.23a1.573,1.573,0,0,1,2.821-1.392l2.811,5.7,10.226,1.486a3.567,3.567,0,0,1,3.113,2.229,3.563,3.563,0,0,1-1.21,3.631l-7.4,7.211,1.746,10.187A3.561,3.561,0,0,1,34.1,39.926,2.9,2.9,0,0,1,32.37,40.468Z"/>
    <path fill="#FC9B1B" d="M9.885,40.468a2.894,2.894,0,0,1-1.732-.542A3.557,3.557,0,0,1,7,36.281L8.746,26.094l-7.4-7.211a3.565,3.565,0,0,1-1.21-3.631,3.567,3.567,0,0,1,3.113-2.229l10.227-1.486,4.574-9.268A3.558,3.558,0,0,1,21.127,0h0a3.563,3.563,0,0,1,3.081,2.271,1.573,1.573,0,0,1-2.821,1.392,2.164,2.164,0,0,0-.259-.417,2.135,2.135,0,0,0-.259.415L15.929,13.67a1.57,1.57,0,0,1-1.184.861L3.7,16.135a2.208,2.208,0,0,0-.478.119,2.1,2.1,0,0,0,.317.377l7.992,7.788a1.573,1.573,0,0,1,.452,1.392l-1.889,11a2.058,2.058,0,0,0-.034.487,2.056,2.056,0,0,0,.453-.184A1.572,1.572,0,1,1,11.976,39.9,4.534,4.534,0,0,1,9.885,40.468Z"/>
</svg>
