<svg xmlns="http://www.w3.org/2000/svg" viewBox="0 0 1000 1000">
    <path fill="#FC9B1B" d="M986.4,379.2c-8.5-24.5-30.3-42.4-56.5-46.3l-255-37.9L564.1,64.9c-11.7-24.2-36.6-39.6-64.1-39.6c-27.4,0-52.4,15.5-64.1,39.6L325.1,295.1L70.1,333c-26.2,3.9-48,21.8-56.4,46.3c-8.4,24.5-2.1,51.5,16.4,70L217,635.8l-43.3,258.8c-4.4,26.1,6.9,52.2,29,67.5c12.2,8.4,26.5,12.6,40.8,12.6c11.8,0,23.6-2.9,34.2-8.6L500,846.4l222.3,119.7c10.7,5.7,22.5,8.6,34.2,8.6c14.3,0,28.6-4.3,40.8-12.6c22.1-15.3,33.4-41.4,29-67.5L783,635.8l186.9-186.6C988.4,430.8,994.7,403.7,986.4,379.2 M732.4,587.7c-15.7,15.6-22.8,37.6-19.2,59.2l43.4,258.8L534.2,786.1c-10.7-5.8-22.4-8.6-34.2-8.6c-11.8,0-23.6,2.9-34.2,8.6L243.4,905.7l43.4-258.8c3.6-21.6-3.5-43.6-19.2-59.2L80.7,401.1l255-38c23.3-3.5,43.4-18,53.4-38.8L500,94.2l110.9,230.1c10,20.8,30.1,35.3,53.4,38.8l255.1,38L732.4,587.7z"/>
    <path fill="#FC9B1B" d="M500,59.6v761.3l-266.5,121l21.8-304.2l-206.7-247l299.1-70.6L500,59.6z"/>
</svg>
